<svg width="103" height="103" viewBox="0 0 103 103" fill="none" xmlns="http://www.w3.org/2000/svg">
<path d="M10.9844 20.5236H5.17188L5.14062 17.4924H10.125C10.9792 17.4924 11.6927 17.3726 12.2656 17.133C12.8385 16.8934 13.2708 16.5445 13.5625 16.0861C13.8646 15.6278 14.0156 15.0705 14.0156 14.4142C14.0156 13.6851 13.875 13.0913 13.5938 12.633C13.3229 12.1747 12.8958 11.8413 12.3125 11.633C11.7292 11.4142 10.9896 11.3049 10.0938 11.3049H6.5625V30.6642H2.26562V7.91425H10.0938C11.3854 7.91425 12.5365 8.03925 13.5469 8.28925C14.5677 8.52883 15.4323 8.90383 16.1406 9.41425C16.849 9.92466 17.3854 10.5653 17.75 11.3361C18.125 12.107 18.3125 13.0236 18.3125 14.0861C18.3125 15.0236 18.0938 15.8882 17.6562 16.6799C17.2292 17.4611 16.5677 18.0965 15.6719 18.5861C14.7865 19.0757 13.6615 19.357 12.2969 19.4299L10.9844 20.5236ZM10.7969 30.6642H3.90625L5.70312 27.2892H10.7969C11.651 27.2892 12.3542 27.1486 12.9062 26.8674C13.4688 26.5861 13.8854 26.2007 14.1562 25.7111C14.4375 25.2111 14.5781 24.6382 14.5781 23.9924C14.5781 23.284 14.4531 22.6695 14.2031 22.1486C13.9635 21.6278 13.5781 21.2267 13.0469 20.9455C12.526 20.6642 11.8385 20.5236 10.9844 20.5236H6.51562L6.54688 17.4924H12.2344L13.2188 18.6642C14.5312 18.6747 15.599 18.9351 16.4219 19.4455C17.2552 19.9559 17.8698 20.6122 18.2656 21.4142C18.6615 22.2163 18.8594 23.0809 18.8594 24.008C18.8594 25.4663 18.5417 26.6903 17.9062 27.6799C17.2812 28.6695 16.3646 29.4142 15.1562 29.9142C13.9583 30.4142 12.5052 30.6642 10.7969 30.6642ZM21.5312 22.383V22.0549C21.5312 20.8153 21.7083 19.6747 22.0625 18.633C22.4167 17.5809 22.9323 16.6695 23.6094 15.8986C24.2865 15.1278 25.1146 14.5288 26.0938 14.1017C27.0729 13.6642 28.1875 13.4455 29.4375 13.4455C30.7083 13.4455 31.8333 13.6642 32.8125 14.1017C33.8021 14.5288 34.6354 15.1278 35.3125 15.8986C35.9896 16.6695 36.5052 17.5809 36.8594 18.633C37.2135 19.6747 37.3906 20.8153 37.3906 22.0549V22.383C37.3906 23.6122 37.2135 24.7528 36.8594 25.8049C36.5052 26.8465 35.9896 27.758 35.3125 28.5392C34.6354 29.3101 33.8073 29.909 32.8281 30.3361C31.849 30.7632 30.7292 30.9767 29.4688 30.9767C28.2188 30.9767 27.099 30.7632 26.1094 30.3361C25.1198 29.909 24.2865 29.3101 23.6094 28.5392C22.9323 27.758 22.4167 26.8465 22.0625 25.8049C21.7083 24.7528 21.5312 23.6122 21.5312 22.383ZM25.6562 22.0549V22.383C25.6562 23.1226 25.7292 23.8153 25.875 24.4611C26.0208 25.107 26.2448 25.6747 26.5469 26.1642C26.849 26.6538 27.2396 27.0392 27.7188 27.3205C28.2083 27.5913 28.7917 27.7267 29.4688 27.7267C30.1354 27.7267 30.7083 27.5913 31.1875 27.3205C31.6667 27.0392 32.0573 26.6538 32.3594 26.1642C32.6719 25.6747 32.901 25.107 33.0469 24.4611C33.1927 23.8153 33.2656 23.1226 33.2656 22.383V22.0549C33.2656 21.3257 33.1927 20.6434 33.0469 20.008C32.901 19.3622 32.6719 18.7945 32.3594 18.3049C32.0573 17.8049 31.6615 17.4142 31.1719 17.133C30.6927 16.8413 30.1146 16.6955 29.4375 16.6955C28.7708 16.6955 28.1979 16.8413 27.7188 17.133C27.2396 17.4142 26.849 17.8049 26.5469 18.3049C26.2448 18.7945 26.0208 19.3622 25.875 20.008C25.7292 20.6434 25.6562 21.3257 25.6562 22.0549ZM44.5156 17.2111V30.6642H40.3906V13.758H44.2969L44.5156 17.2111ZM49.6562 13.6486L49.5938 17.4924C49.3646 17.4507 49.1042 17.4195 48.8125 17.3986C48.5312 17.3778 48.2656 17.3674 48.0156 17.3674C47.3802 17.3674 46.8229 17.4559 46.3438 17.633C45.8646 17.7997 45.4635 18.0445 45.1406 18.3674C44.8281 18.6903 44.5885 19.0861 44.4219 19.5549C44.2552 20.0132 44.1615 20.534 44.1406 21.1174L43.25 21.008C43.25 19.9351 43.3594 18.9403 43.5781 18.0236C43.7969 17.107 44.1146 16.3049 44.5312 15.6174C44.9479 14.9299 45.4688 14.3986 46.0938 14.0236C46.7292 13.6382 47.4583 13.4455 48.2812 13.4455C48.5104 13.4455 48.7552 13.4663 49.0156 13.508C49.2865 13.5392 49.5 13.5861 49.6562 13.6486ZM56.0469 17.2111V30.6642H51.9219V13.758H55.8281L56.0469 17.2111ZM61.1875 13.6486L61.125 17.4924C60.8958 17.4507 60.6354 17.4195 60.3438 17.3986C60.0625 17.3778 59.7969 17.3674 59.5469 17.3674C58.9115 17.3674 58.3542 17.4559 57.875 17.633C57.3958 17.7997 56.9948 18.0445 56.6719 18.3674C56.3594 18.6903 56.1198 19.0861 55.9531 19.5549C55.7865 20.0132 55.6927 20.534 55.6719 21.1174L54.7812 21.008C54.7812 19.9351 54.8906 18.9403 55.1094 18.0236C55.3281 17.107 55.6458 16.3049 56.0625 15.6174C56.4792 14.9299 57 14.3986 57.625 14.0236C58.2604 13.6382 58.9896 13.4455 59.8125 13.4455C60.0417 13.4455 60.2865 13.4663 60.5469 13.508C60.8177 13.5392 61.0312 13.5861 61.1875 13.6486ZM62.2812 22.383V22.0549C62.2812 20.8153 62.4583 19.6747 62.8125 18.633C63.1667 17.5809 63.6823 16.6695 64.3594 15.8986C65.0365 15.1278 65.8646 14.5288 66.8438 14.1017C67.8229 13.6642 68.9375 13.4455 70.1875 13.4455C71.4583 13.4455 72.5833 13.6642 73.5625 14.1017C74.5521 14.5288 75.3854 15.1278 76.0625 15.8986C76.7396 16.6695 77.2552 17.5809 77.6094 18.633C77.9635 19.6747 78.1406 20.8153 78.1406 22.0549V22.383C78.1406 23.6122 77.9635 24.7528 77.6094 25.8049C77.2552 26.8465 76.7396 27.758 76.0625 28.5392C75.3854 29.3101 74.5573 29.909 73.5781 30.3361C72.599 30.7632 71.4792 30.9767 70.2188 30.9767C68.9688 30.9767 67.849 30.7632 66.8594 30.3361C65.8698 29.909 65.0365 29.3101 64.3594 28.5392C63.6823 27.758 63.1667 26.8465 62.8125 25.8049C62.4583 24.7528 62.2812 23.6122 62.2812 22.383ZM66.4062 22.0549V22.383C66.4062 23.1226 66.4792 23.8153 66.625 24.4611C66.7708 25.107 66.9948 25.6747 67.2969 26.1642C67.599 26.6538 67.9896 27.0392 68.4688 27.3205C68.9583 27.5913 69.5417 27.7267 70.2188 27.7267C70.8854 27.7267 71.4583 27.5913 71.9375 27.3205C72.4167 27.0392 72.8073 26.6538 73.1094 26.1642C73.4219 25.6747 73.651 25.107 73.7969 24.4611C73.9427 23.8153 74.0156 23.1226 74.0156 22.383V22.0549C74.0156 21.3257 73.9427 20.6434 73.7969 20.008C73.651 19.3622 73.4219 18.7945 73.1094 18.3049C72.8073 17.8049 72.4115 17.4142 71.9219 17.133C71.4427 16.8413 70.8646 16.6955 70.1875 16.6955C69.5208 16.6955 68.9479 16.8413 68.4688 17.133C67.9896 17.4142 67.599 17.8049 67.2969 18.3049C66.9948 18.7945 66.7708 19.3622 66.625 20.008C66.4792 20.6434 66.4062 21.3257 66.4062 22.0549ZM85.8438 26.6017L89.5469 13.758H92.1719L91.3906 18.1955L87.6562 30.6642H85.3906L85.8438 26.6017ZM83.7969 13.758L86.5781 26.633L86.8281 30.6642H84.2188L79.7812 13.758H83.7969ZM95.6094 26.4455L98.3281 13.758H102.328L97.9219 30.6642H95.3125L95.6094 26.4455ZM92.5781 13.758L96.25 26.4767L96.7344 30.6642H94.4688L90.7031 18.1955L89.9375 13.758H92.5781Z" fill="white" fill-opacity="0.8"/>
<g opacity="0.6">
<path d="M48.5 90.4999V62.5749L36.3 74.7749C35.325 75.7499 33.725 75.7499 32.75 74.7749C32.5182 74.5437 32.3344 74.2689 32.2089 73.9665C32.0835 73.6641 32.0189 73.3399 32.0189 73.0124C32.0189 72.685 32.0835 72.3608 32.2089 72.0584C32.3344 71.7559 32.5182 71.4812 32.75 71.2499L49.225 54.7749C50.2 53.7999 51.775 53.7999 52.75 54.7749L69.225 71.2499C69.4565 71.4814 69.6401 71.7562 69.7653 72.0586C69.8906 72.361 69.955 72.6851 69.955 73.0124C69.955 73.3398 69.8906 73.6639 69.7653 73.9663C69.6401 74.2687 69.4565 74.5435 69.225 74.7749C68.9935 75.0064 68.7188 75.19 68.4164 75.3153C68.1139 75.4405 67.7898 75.505 67.4625 75.505C67.1352 75.505 66.8111 75.4405 66.5086 75.3153C66.2062 75.19 65.9314 75.0064 65.7 74.7749L53.5 62.5749V90.4999C53.5 91.8749 52.375 92.9999 51 92.9999C49.625 92.9999 48.5 91.8749 48.5 90.4999Z" fill="white"/>
</g>
</svg>
