<svg width="110" height="103" viewBox="0 0 110 103" fill="none" xmlns="http://www.w3.org/2000/svg">
<path d="M9.10938 30.8321H4.20312L4.23438 27.4571H9.10938C10.4323 27.4571 11.5417 27.1655 12.4375 26.5821C13.3333 25.9884 14.0104 25.1394 14.4688 24.0352C14.9271 22.9207 15.1562 21.5873 15.1562 20.0352V18.8634C15.1562 17.6655 15.026 16.6082 14.7656 15.6915C14.5052 14.7748 14.1198 14.004 13.6094 13.379C13.1094 12.754 12.4896 12.28 11.75 11.9571C11.0104 11.6342 10.1615 11.4727 9.20312 11.4727H4.10938V8.08212H9.20312C10.724 8.08212 12.1094 8.33733 13.3594 8.84775C14.6198 9.35816 15.7083 10.0925 16.625 11.0509C17.5521 11.9988 18.2604 13.1342 18.75 14.4571C19.25 15.78 19.5 17.2592 19.5 18.8946V20.0352C19.5 21.6602 19.25 23.1394 18.75 24.4727C18.2604 25.7957 17.5521 26.9311 16.625 27.879C15.7083 28.8269 14.6146 29.5561 13.3438 30.0665C12.0729 30.5769 10.6615 30.8321 9.10938 30.8321ZM6.60938 8.08212V30.8321H2.3125V8.08212H6.60938ZM30.4375 31.1446C29.1562 31.1446 28.0052 30.9363 26.9844 30.5196C25.9635 30.103 25.0938 29.5248 24.375 28.7852C23.6667 28.0352 23.1198 27.1655 22.7344 26.1759C22.3594 25.1759 22.1719 24.103 22.1719 22.9571V22.3321C22.1719 21.03 22.3594 19.8477 22.7344 18.7852C23.1094 17.7123 23.6406 16.7905 24.3281 16.0196C25.0156 15.2488 25.8385 14.655 26.7969 14.2384C27.7552 13.8217 28.8125 13.6134 29.9688 13.6134C31.1667 13.6134 32.224 13.8165 33.1406 14.2227C34.0573 14.6186 34.8229 15.1811 35.4375 15.9102C36.0521 16.6394 36.5156 17.5144 36.8281 18.5352C37.1406 19.5457 37.2969 20.6655 37.2969 21.8946V23.629H24.0469V20.7852H33.2344V20.4727C33.2135 19.8165 33.0885 19.2175 32.8594 18.6759C32.6302 18.1238 32.276 17.6863 31.7969 17.3634C31.3177 17.03 30.6979 16.8634 29.9375 16.8634C29.3229 16.8634 28.7865 16.9988 28.3281 17.2696C27.8802 17.53 27.5052 17.905 27.2031 18.3946C26.9115 18.8738 26.6927 19.4467 26.5469 20.1134C26.401 20.78 26.3281 21.5196 26.3281 22.3321V22.9571C26.3281 23.6655 26.4219 24.3217 26.6094 24.9259C26.8073 25.53 27.0938 26.0561 27.4688 26.504C27.8542 26.9415 28.3125 27.2852 28.8438 27.5352C29.3854 27.7748 30 27.8946 30.6875 27.8946C31.5521 27.8946 32.3333 27.728 33.0312 27.3946C33.7396 27.0509 34.3542 26.5457 34.875 25.879L36.9531 28.0352C36.599 28.5561 36.1198 29.0561 35.5156 29.5352C34.9219 30.0144 34.2031 30.405 33.3594 30.7071C32.5156 30.9988 31.5417 31.1446 30.4375 31.1446ZM44.1875 17.1759V37.3321H40.0469V13.9259H43.875L44.1875 17.1759ZM55.0469 22.2071V22.5352C55.0469 23.7644 54.901 24.905 54.6094 25.9571C54.3281 26.9988 53.9115 27.9102 53.3594 28.6915C52.8073 29.4623 52.1198 30.0665 51.2969 30.504C50.4844 30.9311 49.5469 31.1446 48.4844 31.1446C47.4427 31.1446 46.5365 30.9467 45.7656 30.5509C44.9948 30.1446 44.3438 29.5717 43.8125 28.8321C43.2812 28.0925 42.8542 27.2332 42.5312 26.254C42.2188 25.2644 41.9844 24.1863 41.8281 23.0196V21.9727C41.9844 20.7332 42.2188 19.6082 42.5312 18.5977C42.8542 17.5769 43.2812 16.6967 43.8125 15.9571C44.3438 15.2071 44.9896 14.629 45.75 14.2227C46.5208 13.8165 47.4219 13.6134 48.4531 13.6134C49.526 13.6134 50.4688 13.8165 51.2812 14.2227C52.1042 14.629 52.7969 15.2123 53.3594 15.9727C53.9219 16.7332 54.3438 17.6394 54.625 18.6915C54.9062 19.7436 55.0469 20.9155 55.0469 22.2071ZM50.9062 22.5352V22.2071C50.9062 21.4571 50.8385 20.7644 50.7031 20.129C50.5677 19.4832 50.3594 18.9207 50.0781 18.4415C49.7969 17.9519 49.4323 17.5717 48.9844 17.3009C48.5365 17.03 47.9948 16.8946 47.3594 16.8946C46.724 16.8946 46.1771 16.9988 45.7188 17.2071C45.2604 17.4155 44.8854 17.7123 44.5938 18.0977C44.3021 18.4832 44.0729 18.9415 43.9062 19.4727C43.75 19.9936 43.6458 20.5717 43.5938 21.2071V23.8009C43.6875 24.5717 43.8698 25.2644 44.1406 25.879C44.4115 26.4936 44.8073 26.9832 45.3281 27.3477C45.8594 27.7123 46.5469 27.8946 47.3906 27.8946C48.026 27.8946 48.5677 27.754 49.0156 27.4727C49.4635 27.1915 49.8281 26.8061 50.1094 26.3165C50.3906 25.8165 50.5938 25.2436 50.7188 24.5977C50.8438 23.9519 50.9062 23.2644 50.9062 22.5352ZM57.3281 22.5509V22.2227C57.3281 20.9832 57.5052 19.8425 57.8594 18.8009C58.2135 17.7488 58.7292 16.8373 59.4062 16.0665C60.0833 15.2957 60.9115 14.6967 61.8906 14.2696C62.8698 13.8321 63.9844 13.6134 65.2344 13.6134C66.5052 13.6134 67.6302 13.8321 68.6094 14.2696C69.599 14.6967 70.4323 15.2957 71.1094 16.0665C71.7865 16.8373 72.3021 17.7488 72.6562 18.8009C73.0104 19.8425 73.1875 20.9832 73.1875 22.2227V22.5509C73.1875 23.78 73.0104 24.9207 72.6562 25.9727C72.3021 27.0144 71.7865 27.9259 71.1094 28.7071C70.4323 29.478 69.6042 30.0769 68.625 30.504C67.6458 30.9311 66.526 31.1446 65.2656 31.1446C64.0156 31.1446 62.8958 30.9311 61.9062 30.504C60.9167 30.0769 60.0833 29.478 59.4062 28.7071C58.7292 27.9259 58.2135 27.0144 57.8594 25.9727C57.5052 24.9207 57.3281 23.78 57.3281 22.5509ZM61.4531 22.2227V22.5509C61.4531 23.2905 61.526 23.9832 61.6719 24.629C61.8177 25.2748 62.0417 25.8425 62.3438 26.3321C62.6458 26.8217 63.0365 27.2071 63.5156 27.4884C64.0052 27.7592 64.5885 27.8946 65.2656 27.8946C65.9323 27.8946 66.5052 27.7592 66.9844 27.4884C67.4635 27.2071 67.8542 26.8217 68.1562 26.3321C68.4688 25.8425 68.6979 25.2748 68.8438 24.629C68.9896 23.9832 69.0625 23.2905 69.0625 22.5509V22.2227C69.0625 21.4936 68.9896 20.8113 68.8438 20.1759C68.6979 19.53 68.4688 18.9623 68.1562 18.4727C67.8542 17.9727 67.4583 17.5821 66.9688 17.3009C66.4896 17.0092 65.9115 16.8634 65.2344 16.8634C64.5677 16.8634 63.9948 17.0092 63.5156 17.3009C63.0365 17.5821 62.6458 17.9727 62.3438 18.4727C62.0417 18.9623 61.8177 19.53 61.6719 20.1759C61.526 20.8113 61.4531 21.4936 61.4531 22.2227ZM85.4844 26.2071C85.4844 25.853 85.3906 25.5352 85.2031 25.254C85.0156 24.9727 84.6615 24.7175 84.1406 24.4884C83.6302 24.2488 82.8802 24.0248 81.8906 23.8165C81.0156 23.629 80.2083 23.3946 79.4688 23.1134C78.7292 22.8321 78.0938 22.4936 77.5625 22.0977C77.0312 21.6915 76.6146 21.2175 76.3125 20.6759C76.0208 20.1238 75.875 19.4884 75.875 18.7696C75.875 18.0717 76.026 17.4155 76.3281 16.8009C76.6302 16.1759 77.0677 15.629 77.6406 15.1602C78.2135 14.6811 78.9115 14.3061 79.7344 14.0352C80.5573 13.754 81.4844 13.6134 82.5156 13.6134C83.9531 13.6134 85.1875 13.8477 86.2188 14.3165C87.2604 14.7852 88.0573 15.4311 88.6094 16.254C89.1615 17.0665 89.4375 17.9832 89.4375 19.004H85.3125C85.3125 18.5561 85.2083 18.1498 85 17.7852C84.8021 17.4207 84.4948 17.129 84.0781 16.9102C83.6615 16.6811 83.1354 16.5665 82.5 16.5665C81.9271 16.5665 81.4427 16.6602 81.0469 16.8477C80.6615 17.0352 80.3698 17.28 80.1719 17.5821C79.974 17.8842 79.875 18.2175 79.875 18.5821C79.875 18.853 79.9271 19.0977 80.0312 19.3165C80.1458 19.5248 80.3281 19.7175 80.5781 19.8946C80.8281 20.0717 81.1667 20.2332 81.5938 20.379C82.0312 20.5248 82.5677 20.6655 83.2031 20.8009C84.4635 21.0509 85.5625 21.3842 86.5 21.8009C87.4479 22.2071 88.1875 22.7488 88.7188 23.4259C89.25 24.103 89.5156 24.9675 89.5156 26.0196C89.5156 26.7696 89.3542 27.4571 89.0312 28.0821C88.7083 28.6967 88.2396 29.2332 87.625 29.6915C87.0104 30.1498 86.276 30.5092 85.4219 30.7696C84.5677 31.0196 83.6042 31.1446 82.5312 31.1446C80.9792 31.1446 79.6667 30.8686 78.5938 30.3165C77.5208 29.754 76.7083 29.0457 76.1562 28.1915C75.6042 27.3269 75.3281 26.4311 75.3281 25.504H79.2812C79.3125 26.1602 79.4896 26.6863 79.8125 27.0821C80.1354 27.478 80.5417 27.7644 81.0312 27.9415C81.5312 28.1082 82.0573 28.1915 82.6094 28.1915C83.2344 28.1915 83.7604 28.1082 84.1875 27.9415C84.6146 27.7644 84.9375 27.53 85.1562 27.2384C85.375 26.9363 85.4844 26.5925 85.4844 26.2071ZM97.0312 13.9259V30.8321H92.8906V13.9259H97.0312ZM92.6094 9.504C92.6094 8.88941 92.8177 8.379 93.2344 7.97275C93.6615 7.5665 94.2344 7.36337 94.9531 7.36337C95.6719 7.36337 96.2396 7.5665 96.6562 7.97275C97.0833 8.379 97.2969 8.88941 97.2969 9.504C97.2969 10.1082 97.0833 10.6134 96.6562 11.0196C96.2396 11.4259 95.6719 11.629 94.9531 11.629C94.2344 11.629 93.6615 11.4259 93.2344 11.0196C92.8177 10.6134 92.6094 10.1082 92.6094 9.504ZM108.969 13.9259V16.8946H99.2812V13.9259H108.969ZM101.875 9.76962H106.016V25.9571C106.016 26.4571 106.083 26.8425 106.219 27.1134C106.354 27.3842 106.557 27.5665 106.828 27.6602C107.099 27.754 107.422 27.8009 107.797 27.8009C108.068 27.8009 108.318 27.7852 108.547 27.754C108.776 27.7227 108.969 27.6915 109.125 27.6602L109.141 30.754C108.797 30.8686 108.406 30.9623 107.969 31.0352C107.542 31.1082 107.057 31.1446 106.516 31.1446C105.589 31.1446 104.776 30.9884 104.078 30.6759C103.38 30.353 102.839 29.8373 102.453 29.129C102.068 28.4102 101.875 27.4623 101.875 26.2852V9.76962Z" fill="white" fill-opacity="0.8"/>
<g opacity="0.6">
<path d="M52.5 55.5001V83.4251L40.3 71.2251C39.325 70.2501 37.725 70.2501 36.75 71.2251C36.5182 71.4564 36.3344 71.7311 36.2089 72.0335C36.0835 72.336 36.0189 72.6602 36.0189 72.9876C36.0189 73.315 36.0835 73.6392 36.2089 73.9417C36.3344 74.2441 36.5182 74.5188 36.75 74.7501L53.225 91.2251C54.2 92.2001 55.775 92.2001 56.75 91.2251L73.225 74.7501C73.4565 74.5186 73.6401 74.2439 73.7653 73.9415C73.8906 73.639 73.955 73.3149 73.955 72.9876C73.955 72.6603 73.8906 72.3361 73.7653 72.0337C73.6401 71.7313 73.4565 71.4565 73.225 71.2251C72.9935 70.9936 72.7188 70.81 72.4164 70.6848C72.1139 70.5595 71.7898 70.495 71.4625 70.495C71.1352 70.495 70.8111 70.5595 70.5086 70.6848C70.2062 70.81 69.9314 70.9936 69.7 71.2251L57.5 83.4251V55.5001C57.5 54.1251 56.375 53.0001 55 53.0001C53.625 53.0001 52.5 54.1251 52.5 55.5001Z" fill="white"/>
</g>
</svg>
